<svg width="15" height="13" viewBox="0 0 15 13" fill="none" xmlns="http://www.w3.org/2000/svg">
<path d="M13.2297 0.729881C11.2524 -0.572199 8.81082 0.0354341 7.49267 1.52562C6.1745 0.0354341 3.73289 -0.579424 1.75565 0.729881C0.707096 1.42433 0.0480261 2.59622 0.00308468 3.83318C-0.101758 6.63993 2.47464 8.8897 6.40668 12.3402L6.48158 12.4053C7.05075 12.9044 7.92705 12.9045 8.49627 12.3981L8.57864 12.3257C12.5107 8.88242 15.0797 6.63271 14.9822 3.82597C14.9373 2.59622 14.2782 1.42433 13.2297 0.729881ZM7.56754 11.2623L7.49267 11.3347L7.41777 11.2623C3.85272 8.14457 1.50099 6.08292 1.50099 3.99234C1.50099 2.54558 2.62443 1.46051 4.12236 1.46051C5.27576 1.46051 6.39917 2.17668 6.79612 3.1677H8.19668C8.58615 2.17668 9.70956 1.46051 10.863 1.46051C12.3609 1.46051 13.4843 2.54558 13.4843 3.99234C13.4843 6.08292 11.1326 8.14457 7.56754 11.2623Z" fill="#335C7A"/>
<path d="M8.11347 1.18633L7.4986 1.80428L6.88074 1.18482C6.12483 0.427067 5.09964 0.00140248 4.03069 0.00147298C2.96176 0.00154346 1.93661 0.427343 1.18081 1.1852C0.425009 1.94306 0.000440867 2.97089 0.000511178 4.0426C0.000581491 5.11429 0.425284 6.14207 1.18119 6.89983L7.10117 12.8351C7.20662 12.9407 7.34956 13 7.4986 13C7.64763 13 7.79056 12.9407 7.89601 12.8351L13.8213 6.89832C14.5763 6.14041 15.0003 5.11298 15.0001 4.04179C15 2.97062 14.5757 1.94329 13.8205 1.18558C13.4459 0.809718 13.001 0.511558 12.5114 0.308131C12.0218 0.104705 11.497 0 10.967 0C10.437 0 9.91219 0.104705 9.42256 0.308131C8.93295 0.511558 8.4881 0.809718 8.11347 1.18558V1.18633ZM13.0234 6.10294L7.4986 11.6398L1.97602 6.10294C1.70385 5.83296 1.48759 5.51171 1.33966 5.15766C1.19173 4.8036 1.11505 4.42373 1.11403 4.03987C1.11301 3.656 1.18767 3.27573 1.33372 2.92089C1.47977 2.56606 1.69433 2.24366 1.96505 1.97222C2.23579 1.70079 2.55736 1.48568 2.91129 1.33926C3.26521 1.19283 3.64452 1.11797 4.02738 1.119C4.41025 1.12002 4.78915 1.19689 5.14229 1.3452C5.49544 1.49352 5.81586 1.71033 6.08515 1.98321L7.10343 3.00338C7.15641 3.05655 7.21947 3.09856 7.28887 3.12697C7.35827 3.15536 7.43266 3.16956 7.50762 3.16871C7.58257 3.16787 7.65661 3.15202 7.72537 3.12207C7.79413 3.09213 7.85623 3.04871 7.90801 2.99435L8.9083 1.98321C9.45967 1.46867 10.1886 1.18859 10.9417 1.20188C11.6949 1.21516 12.4135 1.52078 12.9465 2.05444C13.4794 2.5881 13.7852 3.30821 13.7994 4.06328C13.8136 4.81835 13.5352 5.54951 13.0227 6.10294H13.0234Z" fill="white"/>
</svg>
